<?xml version="1.0" encoding="utf-8"?>
<!-- Generator: Adobe Illustrator 21.1.0, SVG Export Plug-In . SVG Version: 6.00 Build 0)  -->
<svg version="1.1" id="Layer_1" xmlns="http://www.w3.org/2000/svg" xmlns:xlink="http://www.w3.org/1999/xlink" x="0px" y="0px"
	 viewBox="0 0 512 512" style="enable-background:new 0 0 512 512;" xml:space="preserve">
<g id="XMLID_21_">
	<path id="XMLID_4_" d="M0,256c0,101.3,58.9,188.9,144.3,230.4L22.2,151.8C8,183.6,0,218.9,0,256z M428.8,243.1
		c0-31.6-11.4-53.6-21.1-70.6c-13-21.1-25.1-38.9-25.1-60c0-23.5,17.8-45.4,43-45.4c1.1,0,2.2,0.1,3.3,0.2C383.3,25.5,322.6,0,256,0
		C166.6,0,87.9,45.9,42.1,115.4c6,0.2,11.7,0.3,16.5,0.3c26.8,0,68.2-3.3,68.2-3.3c13.8-0.8,15.4,19.5,1.6,21.1
		c0,0-13.9,1.6-29.3,2.4l93.2,277.3l56-168L208.5,136c-13.8-0.8-26.8-2.4-26.8-2.4c-13.8-0.8-12.2-21.9,1.6-21.1
		c0,0,42.3,3.3,67.4,3.3c26.8,0,68.2-3.3,68.2-3.3c13.8-0.8,15.4,19.5,1.6,21.1c0,0-13.9,1.6-29.3,2.4l92.5,275.2l25.5-85.3
		C422.3,292.6,428.8,265,428.8,243.1z M260.5,278.4l-76.8,223.2c22.9,6.7,47.2,10.4,72.3,10.4c29.8,0,58.4-5.1,85-14.5
		c-0.7-1.1-1.3-2.3-1.8-3.5L260.5,278.4z M480.6,133.2c1.1,8.1,1.7,16.9,1.7,26.3c0,26-4.9,55.2-19.5,91.7l-78.2,226.1
		C460.8,432.9,512,350.4,512,256C512,211.5,500.6,169.6,480.6,133.2z"/>
</g>
</svg>
