<?xml version="1.0" encoding="utf-8"?>
<!-- Generator: Adobe Illustrator 21.1.0, SVG Export Plug-In . SVG Version: 6.00 Build 0)  -->
<svg version="1.1" id="Layer_1" xmlns="http://www.w3.org/2000/svg" xmlns:xlink="http://www.w3.org/1999/xlink" x="0px" y="0px"
	 viewBox="0 0 250 250" style="enable-background:new 0 0 250 250;" xml:space="preserve">
<style type="text/css">
	.st0{fill:#CC00FF;}
</style>
<path class="st0" d="M125.1,0C56.2,0,0.1,56.1,0.1,125c0,68.9,56.1,125,125,125c68.9,0,125-56.1,125-125S194,0,125.1,0z M125.1,5.7
	c65.7,0,119.3,53.6,119.3,119.3s-53.6,119.3-119.3,119.3S5.8,190.7,5.8,125S59.3,5.7,125.1,5.7z M125.1,17.8
	c-37.4,0-70.3,19.1-89.5,48.2c2.5,0.1,4.9,0.3,6.9,0.3c11.2,0,28.6-1.5,28.6-1.5c5.8-0.3,6.4,8.4,0.6,9c0,0-5.9,0.6-12.3,0.9
	l39.2,116l23.5-70.2l-16.9-45.8C99.4,74.4,94,73.8,94,73.8c-5.8-0.3-5.2-9.4,0.6-9c0,0,17.8,1.5,28.3,1.5c11.2,0,28.6-1.5,28.6-1.5
	c5.8-0.3,6.4,8.4,0.6,9c0,0-5.9,0.6-12.3,0.9l38.9,115.1l10.5-35.5c5.4-13.9,8.1-25.5,8.1-34.6c0-13.2-4.6-22.4-8.7-29.5
	c-5.4-8.8-10.5-16.5-10.5-25.3c0-9.8,7.5-19,18.1-19c0.5,0,1,0,1.5,0C178.6,28.3,153,17.8,125.1,17.8z M219,73.5
	c0.5,3.4,0.9,7.2,0.9,11.1c0,10.9-2,23-8.1,38.3L179,217.5c31.9-18.6,53.3-52.9,53.3-92.5C232.3,106.4,227.4,88.8,219,73.5z
	 M27.2,81.3c-5.9,13.3-9.3,28.1-9.3,43.7c0,42.4,24.8,79,60.5,96.4L27.2,81.3z M126.9,134.3l-31.9,93.4c9.6,2.8,19.6,4.5,30.1,4.5
	c12.5,0,24.4-2.4,35.5-6.3c-0.3-0.5-0.4-0.7-0.6-1.2L126.9,134.3z"/>
</svg>
